<svg width="60" height="60" viewBox="0 0 60 60" fill="none" xmlns="http://www.w3.org/2000/svg">
<path d="M30 0C13.4575 0 0 13.4575 0 30C0 46.5425 13.4575 60 30 60C46.5425 60 60 46.5425 60 30C60 13.4575 46.5425 0 30 0ZM30 57.5C14.8375 57.5 2.5 45.1625 2.5 30C2.5 14.8375 14.8375 2.5 30 2.5C45.1625 2.5 57.5 14.8375 57.5 30C57.5 45.1625 45.1625 57.5 30 57.5Z" fill="#F32C1F"/>
<path d="M23.1339 21.3661C22.6457 20.878 21.8543 20.878 21.3661 21.3661C20.878 21.8543 20.878 22.6457 21.3661 23.1339L28.5845 30.3523L21.3662 37.5706C20.878 38.0588 20.878 38.8503 21.3662 39.3384C21.8544 39.8265 22.6458 39.8265 23.1339 39.3384L30.3523 32.12L37.5706 39.3384C38.0588 39.8265 38.8503 39.8265 39.3384 39.3384C39.8265 38.8503 39.8265 38.0588 39.3384 37.5706L32.12 30.3523L39.3385 23.1339C39.8266 22.6457 39.8266 21.8543 39.3385 21.3661C38.8504 20.878 38.0589 20.878 37.5708 21.3661L30.3523 28.5845L23.1339 21.3661Z" fill="#F32C1F"/>
</svg>
