<svg  xmlns="http://www.w3.org/2000/svg" xmlns:xlink="http://www.w3.org/1999/xlink" viewBox="0 0 300 300">
    <style>:root>svg{display:none}:root>svg:target{display:block}</style>
    <svg id="prev" xmlns="http://www.w3.org/2000/svg" viewBox="0 0 40 40">
        <path d="M3.93934 21.0607C3.35355 20.4749 3.35355 19.5251 3.93934 18.9393L13.4853 9.3934C14.0711 8.80761 15.0208 8.80761 15.6066 9.3934C16.1924 9.97919 16.1924 10.9289 15.6066 11.5147L7.12132 20L15.6066 28.4853C16.1924 29.0711 16.1924 30.0208 15.6066 30.6066C15.0208 31.1924 14.0711 31.1924 13.4853 30.6066L3.93934 21.0607ZM35 21.5L5 21.5L5 18.5L35 18.5L35 21.5Z"/>
        </svg>
    <svg id="next" xmlns="http://www.w3.org/2000/svg" viewBox="0 0 40 40">
        <path d="M36.0607 21.0607C36.6464 20.4749 36.6464 19.5251 36.0607 18.9393L26.5147 9.3934C25.9289 8.80761 24.9792 8.80761 24.3934 9.3934C23.8076 9.97919 23.8076 10.9289 24.3934 11.5147L32.8787 20L24.3934 28.4853C23.8076 29.0711 23.8076 30.0208 24.3934 30.6066C24.9792 31.1924 25.9289 31.1924 26.5147 30.6066L36.0607 21.0607ZM5 21.5L35 21.5L35 18.5L5 18.5L5 21.5Z"/>
    </svg>
    <svg id="close" xmlns="http://www.w3.org/2000/svg" viewBox="0 0 30 30">
        <path d="M7.78184 6.01382C7.29367 5.52567 6.50222 5.52567 6.01406 6.01382C5.52591 6.50198 5.52591 7.29343 6.01406 7.78159L13.2325 15L6.01414 22.2183C5.52599 22.7065 5.52599 23.498 6.01414 23.9861C6.5023 24.4742 7.29375 24.4742 7.7819 23.9861L15.0002 16.7677L22.2186 23.9861C22.7067 24.4742 23.4982 24.4742 23.9863 23.9861C24.4745 23.498 24.4745 22.7065 23.9863 22.2183L16.768 15L23.9865 7.78159C24.4746 7.29343 24.4746 6.50198 23.9865 6.01382C23.4983 5.52567 22.7068 5.52567 22.2187 6.01382L15.0002 13.2322L7.78184 6.01382Z"/>
    </svg>
</svg>