<svg xmlns="http://www.w3.org/2000/svg" width="60" height="60" viewBox="0 0 60 60" fill="none">
<g clip-path="url(#clip0_12_79)">
<path d="M30 0C13.4575 0 0 13.4575 0 30C0 46.5425 13.4575 60 30 60C46.5425 60 60 46.5425 60 30C60 13.4575 46.5425 0 30 0ZM30 57.5C14.8375 57.5 2.5 45.1625 2.5 30C2.5 14.8375 14.8375 2.5 30 2.5C45.1625 2.5 57.5 14.8375 57.5 30C57.5 45.1625 45.1625 57.5 30 57.5Z" fill="#28C05C"/>
<path d="M42.0022 21.0074L26.6721 36.3399L19.3821 29.0499C18.8946 28.5624 18.1021 28.5624 17.6146 29.0499C17.1271 29.5374 17.1271 30.3299 17.6146 30.8174L25.7896 38.9924C26.0246 39.2274 26.3421 39.3574 26.6746 39.3574C27.0071 39.3574 27.3246 39.2249 27.5596 38.9924L43.7722 22.7774C44.2597 22.2899 44.2597 21.4974 43.7722 21.0099C43.2847 20.5224 42.4922 20.5199 42.0022 21.0074Z" fill="#28C05C"/>
</g>
<defs>
<clipPath id="clip0_12_79">
<rect width="60" height="60" fill="white"/>
</clipPath>
</defs>
</svg>