<svg xmlns="http://www.w3.org/2000/svg" width="60" height="74" viewBox="0 0 60 74" fill="none">
<path d="M29.8322 61.8557C28.8199 62.576 28.1313 61.6108 27.4887 60.8947L22.2677 55.025C19.4026 51.6624 16.5694 48.258 14.026 44.6415L12.2965 42.0096C8.396 36.0124 5.20443 29.3563 5.77552 22.0163C6.6849 10.3286 16.5138 1.20853 28.0635 0.660596L28.1126 0.654174C39.4921 0.0742846 49.4696 8.16355 51.8737 19.1529C53.9066 28.446 49.6696 36.5755 44.4741 44.0737C41.5905 48.2352 38.3935 52.2368 35.0568 56.0447L29.8322 61.8557ZM27.756 2.89791C19.0788 3.45478 11.5788 9.37277 8.90209 17.5962C8.15787 19.8829 7.59318 24.2596 8.07709 26.6381L8.39209 28.3918C9.9124 35.3065 14.7705 42.1899 19.088 47.6947L29.081 59.3966L29.7962 58.6044C37.7641 49.6827 50.8394 35.3488 50.181 22.8253C49.6532 12.7843 41.5352 4.06028 31.516 2.97558C30.2921 2.84308 28.9854 2.83817 27.756 2.89791Z" fill="#F5F5F5"/>
<path d="M29.2656 39.3996C28.5774 39.3935 27.8621 39.4174 27.1785 39.3454C18.5421 38.4366 12.3897 30.4732 13.3169 21.9573C14.1663 14.1568 21.0775 7.98419 28.9185 7.96107C36.6819 7.97716 43.2075 13.3701 44.5783 21.0915C46.2938 30.7534 38.9546 39.1601 29.2656 39.3996ZM28.5878 10.189C19.5638 10.7323 13.3013 19.244 16.0564 27.941C17.6246 32.891 22.3971 36.6671 27.5467 37.157C28.195 37.2185 28.8644 37.1956 29.5155 37.1998C36.1844 37.0952 41.7931 31.8806 42.5291 25.2449C43.4205 17.2057 36.7908 9.96185 28.7241 10.1837L28.5878 10.189Z" fill="#F5F5F5"/>
<path d="M20.5916 16.1317C21.4235 15.3765 22.4694 15.6164 22.6049 16.6893C22.6825 17.3035 21.9825 17.7863 21.6474 18.2446C18.8192 22.1099 19.3317 28.0751 23.341 30.9654C30.238 35.9373 39.6438 30.1952 38.0958 22.0087C37.2246 17.4009 32.6619 14.0878 28.0266 14.6303C27.2078 14.726 26.1578 15.2776 25.4111 14.7339C24.9547 14.4015 24.6228 13.8199 25.0474 13.3224C25.7649 12.482 27.5189 12.3965 28.5377 12.3376C31.4892 12.2704 34.2994 13.2135 36.5294 15.1807C45.1014 22.7421 38.5491 36.2888 27.5916 34.9748C18.5897 33.8954 14.2789 23.0049 20.5916 16.1317Z" fill="#F5F5F5"/>
<path d="M44.1446 54.5328L47.5393 55.3127C51.2486 56.2275 58.5052 58.3173 59.0821 62.9384C59.8874 69.3889 45.6657 72.137 41.3786 72.784L36.5299 73.3536C34.4341 73.598 32.3175 73.585 30.2111 73.5848L22.5793 73.3144C17.0479 72.8461 10.824 71.9717 5.7613 69.5762C-1.28746 66.2411 -2.33527 61.1533 5.23379 57.512C8.76145 55.815 14.1121 54.4189 18.1227 54.0266C18.7952 53.963 19.359 54.3947 19.4563 55.0811C19.6207 56.2416 18.0097 56.2911 17.2404 56.3881L15.3941 56.6773C12.4724 57.2452 -2.82855 60.7987 3.85739 65.9109C8.8402 69.7208 18.5499 70.8522 24.5319 71.2406L32.5718 71.38C33.8854 71.3694 35.1833 71.242 36.4925 71.1375L39.4522 70.8306C43.2729 70.3576 47.1599 69.5778 50.7719 68.222C63.7224 63.3614 53.3133 58.758 44.9821 56.9481L42.3738 56.4731C41.7793 56.3794 41.1593 56.3117 40.5808 56.1436C39.0347 55.6941 39.4399 54.1467 40.6696 54.0108C41.0976 53.9635 41.5474 54.083 41.9677 54.1538L44.1446 54.5328Z" fill="#F5F5F5"/>
<path d="M44.9187 59.5302C46.7177 59.9141 51.3819 60.9111 50.9848 63.5642L50.9725 63.6392C50.3248 67.7597 37.2039 68.5633 34.2081 68.7206L26.2211 68.8047C23.0231 68.6753 7.92187 67.8545 8.0003 63.273C8.05296 60.2053 15.0897 59.2319 17.3845 59.0205L17.4673 59.0091C18.2114 58.9349 18.852 59.3169 18.8525 60.1292C18.8533 61.3616 17.0997 61.265 16.2712 61.3875C14.8144 61.603 11.278 62.1966 10.2631 63.2114C11.732 65.5487 22.6637 66.5286 26.0883 66.6275L34.49 66.5094C37.5358 66.3069 46.4564 65.5926 48.7789 63.3937C47.5108 62.0967 44.4653 61.6667 42.767 61.4102C42.2166 61.327 41.6305 61.3041 41.0928 61.1591C40.1272 60.8986 39.8751 59.773 40.7898 59.203C41.2842 58.895 42.1433 59.08 42.6873 59.155L44.9187 59.5302Z" fill="#F5F5F5"/>
</svg>